<svg xmlns="http://www.w3.org/2000/svg" viewBox="0 0 400 400">
  <rect width="400" height="400" fill="#FFF9F0"/>
  <ellipse cx="200" cy="280" rx="140" ry="20" fill="#DDDDDD"/>
  <path d="M 80 200 Q 80 280 200 280 Q 320 280 320 200 L 300 180 Q 300 240 200 240 Q 100 240 100 180 Z" fill="#F8F8FF"/>
  <ellipse cx="200" cy="180" rx="100" ry="15" fill="#E8E8F0"/>
  <circle cx="170" cy="160" r="10" fill="#DC143C"/>
  <circle cx="200" cy="155" r="10" fill="#0000CD"/>
  <circle cx="230" cy="160" r="10" fill="#DC143C"/>
  <circle cx="185" cy="175" r="10" fill="#0000CD"/>
  <circle cx="215" cy="175" r="10" fill="#DC143C"/>
  <rect x="165" y="190" width="70" height="8" rx="4" fill="#D4A574"/>
  <rect x="145" y="200" width="50" height="6" rx="3" fill="#D4A574"/>
  <rect x="205" y="198" width="55" height="6" rx="3" fill="#D4A574"/>
  <ellipse cx="180" cy="215" rx="8" ry="5" fill="#F5DEB3"/>
  <ellipse cx="220" cy="213" rx="8" ry="5" fill="#F5DEB3"/>
</svg>
